:SAMPLES-PER-SECOND 30
:FULLY-SPECIFIED
:DEGREES
457
root  -11.4749 39.5904 -9.1103 -177.029 85.9956 -178.584
RightUpLeg  -2.81436 -9.15072 -2.09773
RightLeg  13.8083 -0.0908499 1.29688
RightFoot  -11.2824 -0.075475 -1.32778
RightToes  -1.33073e-015 0 -3.6325e-017
Spine  12.1875 -2.2871 4.27955
Spine1  4.45622 -2.31984 1.97733
HEad  -6.00702 -4.48307 0.156364
LeftShoulder1  0.318527 2.59314 -28.8511
LeftArm  -2.99239 7.81916 -45.2995
LeftForeArm  24.9545 -35.3144 -6.47159
LeftHand  -0.168019 0.717956 4.12801
RightShoulder  -0.367218 -4.6733 24.4049
RightArm  16.3095 -6.70914 45.4131
RightForeArm  -3.19029 20.4042 5.00226
RightHand  -0.903959 7.23036 -8.63195
LeftUpLeg  -15.9324 1.16046 0.85701
LeftLeg  28.7094 2.95459 2.08657
LeftFoot  -12.7424 0.0264036 -4.14731
LeftToes  -1.03319e-009 7.52634e-011 -3.26162e-012
458
root  -10.5913 39.6059 -8.95633 173.07 87.2397 171.934
RightUpLeg  -0.518643 -8.9902 -2.47045
RightLeg  12.7557 0.959313 1.14273
RightFoot  -12.0417 -0.0905672 -1.44774
RightToes  -1.33073e-015 0 -3.6325e-017
Spine  12.6469 -1.8509 4.02726
Spine1  3.9661 -1.82037 1.40285
HEad  -6.05232 -4.19317 0.387547
LeftShoulder1  0.356261 2.48271 -28.7593
LeftArm  -2.29261 7.73902 -44.8845
LeftForeArm  23.4807 -32.5069 -5.83439
LeftHand  -0.147216 0.551577 3.48392
RightShoulder  -0.339269 -4.59547 24.0119
RightArm  15.3689 -4.58518 45.4228
RightForeArm  -3.93619 22.4373 5.06684
RightHand  -1.0454 7.75986 -9.56091
LeftUpLeg  -17.6091 1.22559 -0.370659
LeftLeg  24.1325 3.10231 1.84387
LeftFoot  -11.3436 0.0660663 -4.5554
LeftToes  -1.03319e-009 7.52634e-011 -3.26162e-012
459
root  -9.65034 39.575 -8.80729 157.787 88.304 156.998
RightUpLeg  1.77655 -9.04335 -2.80458
RightLeg  11.8775 2.18978 1.19646
RightFoot  -12.8552 -0.110399 -1.77694
RightToes  -1.33073e-015 0 -3.6325e-017
Spine  12.4859 -1.51617 3.68815
Spine1  4.29063 -1.47789 0.97888
HEad  -6.11217 -3.83707 0.779247
LeftShoulder1  0.343111 2.5179 -28.6725
LeftArm  -1.2066 7.50411 -44.477
LeftForeArm  21.6125 -29.248 -5.15427
LeftHand  -0.114704 0.965869 2.93926
RightShoulder  -0.300262 -4.48435 23.4833
RightArm  13.0883 -2.72385 46.2502
RightForeArm  -2.25627 24.169 5.27459
RightHand  -1.03488 7.87024 -9.40187
LeftUpLeg  -18.6811 1.53054 -1.13547
LeftLeg  18.1829 3.00862 1.43191
LeftFoot  -9.1902 0.140542 -4.44726
LeftToes  -1.03319e-009 7.52634e-011 -3.26162e-012
460
root  -8.63508 39.5258 -8.66339 124.998 89.0335 124.509
RightUpLeg  4.4734 -8.86138 -2.9135
RightLeg  10.3009 3.00657 0.99017
RightFoot  -13.6043 -0.126716 -1.77393
RightToes  -1.33073e-015 0 -3.6325e-017
Spine  12.2529 -1.30176 3.21257
Spine1  4.47931 -1.26214 0.605051
HEad  -5.56045 -3.47265 1.02364
LeftShoulder1  0.372784 2.42244 -28.3377
LeftArm  0.431083 7.66638 -44.172
LeftForeArm  19.147 -25.3884 -4.41998
LeftHand  -0.116366 1.80266 3.45794
RightShoulder  -0.293951 -4.46429 23.442
RightArm  11.1918 -1.35718 46.8492
RightForeArm  -1.5317 25.7969 5.61603
RightHand  -1.02714 8.53942 -8.91011
LeftUpLeg  -19.2829 1.87732 -1.39988
LeftLeg  11.7941 2.16288 0.717905
LeftFoot  -7.14964 0.234214 -5.23181
LeftToes  -1.03319e-009 7.52634e-011 -3.26162e-012
461
root  -7.55567 39.4297 -8.56764 63.8194 88.8708 63.6282
RightUpLeg  7.0837 -8.74718 -3.28076
RightLeg  9.08162 3.98775 0.65806
RightFoot  -14.6309 -0.138395 -1.37741
RightToes  -1.33073e-015 0 -3.6325e-017
Spine  11.7183 -1.1449 2.96671
Spine1  5.05061 -0.94019 -0.35008
HEad  -5.26994 -3.47908 1.4159
LeftShoulder1  0.418611 2.28327 -28.1562
LeftArm  1.25998 7.97641 -43.5997
LeftForeArm  17.6847 -21.4853 -4.20192
LeftHand  -0.0673836 2.81563 2.45822
RightShoulder  -0.288801 -4.45263 23.2654
RightArm  9.97355 -0.568765 47.7431
RightForeArm  -0.540595 27.6506 5.99663
RightHand  -1.00412 7.5182 -9.35291
LeftUpLeg  -19.455 1.08112 -1.32099
LeftLeg  5.97573 1.52306 0.0705004
LeftFoot  -5.59086 0.310082 -5.51954
LeftToes  -1.03319e-009 7.52634e-011 -3.26162e-012
462
root  -6.42121 39.2611 -8.49494 30.4489 87.7066 30.8941
RightUpLeg  9.66404 -8.68723 -3.87332
RightLeg  8.85332 5.28259 0.371301
RightFoot  -16.0955 -0.156356 -1.13358
RightToes  -1.33073e-015 0 -3.6325e-017
Spine  11.7346 -0.878589 2.47507
Spine1  5.38817 -0.489694 -1.19032
HEad  -4.92107 -3.29659 1.7104
LeftShoulder1  0.459603 2.16326 -28.1476
LeftArm  -1.18603 8.77142 -42.8653
LeftForeArm  20.0934 -17.4043 -5.25866
LeftHand  -0.0616217 3.05266 2.34656
RightShoulder  -0.294099 -4.47374 23.166
RightArm  9.48711 -0.270195 48.7132
RightForeArm  0.071612 29.1388 6.32256
RightHand  -1.00985 7.74086 -9.2531
LeftUpLeg  -19.1921 1.01834 -1.25535
LeftLeg  2.39577 0.481157 -0.356942
LeftFoot  -4.98179 0.33935 -5.50984
LeftToes  -1.03319e-009 7.52634e-011 -3.26162e-012
